<?xml version="1.0" encoding="UTF-8"?>
<svg width="32px" height="32px" viewBox="0 0 32 32" version="1.1" xmlns="http://www.w3.org/2000/svg" xmlns:xlink="http://www.w3.org/1999/xlink">
    <!-- Generator: sketchtool 50.2 (55047) - http://www.bohemiancoding.com/sketch -->
    <title>00832CFD-21A1-4053-A370-F2851F087E58</title>
    <desc>Created with sketchtool.</desc>
    <defs></defs>
    <g id="Home-2" stroke="none" stroke-width="1" fill="none" fill-rule="evenodd">
        <g id="1-Home" transform="translate(-344.000000, -1325.000000)" fill="#7341A0">
            <g id="Group-8" transform="translate(150.000000, 952.000000)">
                <path d="M217.398404,387.591959 C217.080893,387.595629 216.937752,387.335226 216.917094,387.055198 C216.876267,386.501842 216.848127,385.945774 216.77005,385.397046 C216.359823,382.49927 214.004188,380.101874 211.064118,379.587452 C210.621359,379.510065 210.168515,379.489801 209.720388,379.443369 C209.437361,379.414329 209.066172,379.397575 209.003711,379.052126 C208.950521,378.762524 209.199715,378.532119 209.481279,378.516961 C209.557729,378.512972 209.634504,378.516482 209.711442,378.516482 C213.676592,378.625781 209.634504,378.516482 209.711442,378.516482 C213.676592,378.625781 216.933523,381.207149 217.631332,385.052715 C217.750074,385.708029 217.792528,386.378024 217.845555,387.042752 C217.867677,387.322621 217.706644,387.588449 217.398404,387.591959 M212.31497,382.024896 C211.843095,381.798161 211.332994,381.657748 210.8159,381.57334 C210.590129,381.536961 210.361592,381.514622 210.134682,381.483348 C209.8593,381.446011 209.712581,381.274324 209.725268,381.008018 C209.737468,380.758944 209.922899,380.579439 210.200396,380.594916 C211.110151,380.645337 211.989488,380.838405 212.798068,381.258847 C214.443532,382.113452 215.383053,383.462695 215.657622,385.263813 C215.669984,385.345508 215.689991,385.426246 215.696335,385.50826 C215.711788,385.710582 215.721222,385.913065 215.737163,386.17985 C215.730819,386.228196 215.72724,386.342601 215.69845,386.450304 C215.593046,386.84043 214.989417,386.889255 214.850668,386.49562 C214.809353,386.378502 214.803335,386.245429 214.802847,386.119536 C214.801871,385.295566 214.619041,384.472713 214.195801,383.755967 C213.759874,383.018958 213.094922,382.399385 212.31497,382.024896 M213.271082,386.085709 C213.06483,386.089379 213.173161,386.084432 213.248473,386.082677 C212.93275,386.079007 212.760494,385.90381 212.727474,385.612931 C212.703563,385.404705 212.685183,385.194085 212.63427,384.991763 C212.534397,384.592862 212.318711,384.223479 211.976638,383.979033 C211.815442,383.864149 211.632613,383.779742 211.441163,383.72581 C211.197824,383.656561 210.944726,383.675868 210.701876,383.61715 C210.438367,383.554123 210.292624,383.344461 210.33394,383.10161 C210.371677,382.881098 210.590617,382.708772 210.83672,382.726005 C212.373852,382.834825 213.472943,383.614437 213.629584,385.390345 C213.640645,385.515121 213.65382,385.647716 213.625355,385.767226 C213.578671,385.96556 213.432766,386.065923 213.28686,386.082199 C213.306542,386.082199 213.309307,386.082996 213.271082,386.085709 M217.18532,393.017013 C216.755248,393.912945 216.12966,394.657773 215.227062,395.133742 C214.972012,395.267772 214.667677,395.311013 214.380257,395.397814 C214.049408,395.299525 213.734499,395.233626 213.442363,395.114435 C210.41039,393.880714 207.620617,392.288939 205.410563,389.848941 C204.153856,388.461244 203.170254,386.894999 202.338413,385.236847 C201.944452,384.450853 201.611976,383.633744 201.272993,382.82222 C200.964428,382.082019 201.41955,381.317406 201.898256,380.759901 C202.347847,380.236543 202.926264,379.836047 203.552503,379.5407 C204.041458,379.310295 204.523581,379.443369 204.880943,379.849609 C205.652925,380.728628 206.361958,381.652482 206.935495,382.670957 C207.288792,383.29771 207.192172,384.063281 206.55227,384.489786 C206.39693,384.5935 206.254765,384.715085 206.109998,384.832202 C205.983287,384.935119 205.863407,385.038673 205.776384,385.177491 C205.617303,385.43183 205.609495,385.731485 205.712296,386.007684 C206.501357,388.134943 207.831261,389.789106 210.013663,390.679613 C210.363056,390.8221 210.713587,390.988043 211.116007,390.942249 C211.790068,390.864703 212.007869,390.140298 212.480394,389.761023 C212.941697,389.391162 213.531337,389.386056 214.02875,389.694965 C214.526,390.003396 215.008123,390.334803 215.486992,390.669879 C215.957241,390.998414 216.425538,391.319929 216.85935,391.694896 C217.276572,392.055502 217.420363,392.52828 217.18532,393.017013 M222.970955,376.657125 C220.407767,373.838171 215.825324,373 211.242718,373 C206.660276,373 203.009871,373.22865 200.912703,373.990551 C196.873868,375.514353 194,378.638067 194,384.200024 C194,387.476118 194.024074,392.292609 194.85445,394.790368 C196.019417,398.295272 199.980664,400.657085 202.77678,400.657085 L203.165211,400.657085 L203.941748,405 L208.835033,400.885575 C213.728318,400.885575 219.78657,400.352324 222.504936,397.761861 C225.223301,395.171398 226,391.438003 226,386.942867 C226,382.447572 225.534143,379.476238 222.970955,376.657125" id="viber"></path>
            </g>
        </g>
    </g>
</svg>