<?xml version="1.0" encoding="UTF-8"?>
<svg width="34px" height="32px" viewBox="0 0 34 32" version="1.1" xmlns="http://www.w3.org/2000/svg" xmlns:xlink="http://www.w3.org/1999/xlink">
    <!-- Generator: sketchtool 50.2 (55047) - http://www.bohemiancoding.com/sketch -->
    <title>E445323D-355A-4626-874E-C37BF6EA2E7F</title>
    <desc>Created with sketchtool.</desc>
    <defs>
        <polygon id="path-1" points="0.0415241565 0.0603595132 33.0023224 0.0603595132 33.0023224 31.3806452 0.0415241565 31.3806452"></polygon>
    </defs>
    <g id="Home-2" stroke="none" stroke-width="1" fill="none" fill-rule="evenodd">
        <g id="1-Home" transform="translate(-294.000000, -1325.000000)">
            <g id="Group-8" transform="translate(150.000000, 952.000000)">
                <g id="zalo" transform="translate(144.000000, 373.000000)">
                    <g id="Group-3">
                        <mask id="mask-2" fill="white">
                            <use xlink:href="#path-1"></use>
                        </mask>
                        <g id="Clip-2"></g>
                        <path d="M23.8644031,12.7438021 C23.8644031,11.6194127 23.8692968,10.4949516 23.8623881,9.37056224 C23.8588618,8.79896056 23.4921245,8.4393398 22.9454011,8.4447255 C22.4160933,8.44996757 22.0638932,8.80829576 22.0543217,9.36022171 C22.0484925,9.69506827 22.0530983,10.0300585 22.0530983,10.3650486 C22.0530983,12.2669886 22.051587,14.1689286 22.0543217,16.0709404 C22.0548975,16.5191019 22.326568,16.9037841 22.6899948,16.9953409 C23.2950105,17.1477202 23.8576383,16.7175109 23.8621722,16.0812091 C23.8699445,14.9687401 23.8643312,13.8562711 23.8644031,12.7438021 M24.4947507,14.1715855 C24.4679075,15.9646627 25.9575976,17.3236528 27.8268348,17.1366615 C29.5473908,16.9646066 30.6631471,15.6772102 30.6076615,13.8624467 C30.5528956,12.0702312 29.2087922,10.8409286 27.3764734,10.8970834 C25.6522471,10.9500068 24.4397689,12.3276674 24.4947507,14.1715855 M19.5072396,11.506385 C18.6090356,10.7242385 17.6170604,10.6761981 16.6407017,11.248877 C15.4646381,11.9387485 15.0272306,13.0639277 15.1766314,14.375093 C15.3158131,15.5956349 15.8434656,16.5922038 17.1252467,17.0071895 C17.92421,17.2657746 18.6633697,17.1729252 19.3186894,16.6428293 C19.4879528,16.5059608 19.53984,16.5320994 19.6611742,16.6849095 C19.9089521,16.9971362 20.2956239,17.0888366 20.666679,16.962955 C21.0207503,16.8428899 21.2628429,16.5422963 21.2651458,16.1502178 C21.2737097,14.7148226 21.2806904,13.2791401 21.2617634,11.8438167 C21.254207,11.2702761 20.7181345,10.9036899 20.1527719,11.0186565 C19.8564891,11.0789045 19.682548,11.2862896 19.5072396,11.506385 M11.1592179,15.286137 C11.2785371,15.1298082 11.3489195,15.0348764 11.4221087,14.9422425 C12.3647154,13.7489881 13.3090494,12.557098 14.2497851,11.3624792 C14.5238305,11.0144197 14.7983796,10.6637033 14.9706655,10.2510873 C15.1684993,9.77721806 14.9542574,9.3298464 14.4676972,9.16217178 C14.2476261,9.08634121 14.019207,9.08052466 13.792515,9.07980656 C12.5092945,9.07556982 11.2260741,9.07528258 9.94292557,9.08045285 C9.76488242,9.08117094 9.58065022,9.09783069 9.41023543,9.14579927 C9.04954333,9.24726575 8.83659681,9.53960123 8.83947544,9.88471652 C8.84235407,10.2291137 9.06184946,10.5180742 9.42347712,10.6127188 C9.59489943,10.6575277 9.77834001,10.6718178 9.95645513,10.673254 C10.7359157,10.6794296 11.5155201,10.6739003 12.2949807,10.6787833 C12.3788927,10.6792859 12.4866973,10.6243519 12.5546329,10.7468585 C12.4904395,10.8307317 12.4266059,10.9161847 12.3605414,10.9999143 C11.2483115,12.4101045 10.1353619,13.8195765 9.02370764,15.2301976 C8.7474313,15.5807704 8.60846553,15.967176 8.80853018,16.3977443 C9.00809108,16.8275227 9.41628055,16.9098879 9.8337536,16.9338722 C10.1684661,16.9531889 10.5050497,16.941484 10.8408417,16.941484 C12.0040953,16.941484 13.1674209,16.9495266 14.3305306,16.9363855 C14.9472047,16.92942 15.2793984,16.5526369 15.2128301,15.9845538 C15.1602952,15.5358178 14.8517062,15.2933897 14.2808023,15.2885785 C13.2645026,15.2798896 12.248203,15.286137 11.1592179,15.286137 M5.94386338,27.385135 C5.81677194,27.3310627 5.720122,27.2629157 5.87420058,27.1367468 C5.96631668,27.0612035 6.07124267,27.0010991 6.1717068,26.9360399 C7.11143496,26.3273847 7.99603739,25.6566862 8.57924745,24.6744792 C9.0665992,23.8536276 8.98858838,23.3750189 8.38162963,22.7686615 C4.973118,19.363323 3.47025821,15.2897993 4.2202128,10.4821695 C4.6438749,7.76591259 5.89082465,5.42141217 7.70004245,3.38181386 C8.79240987,2.15042872 10.0954209,1.15070025 11.5205577,0.316492118 C11.6046856,0.267302777 11.7324248,0.254520729 11.7476095,0.126628443 C11.7198308,0.0571170827 11.6644891,0.0776545302 11.6218854,0.0776545302 C9.19923199,0.0772236746 6.77528315,0.0304758485 4.35421295,0.0925190463 C2.04281847,0.151833492 0.0375660974,1.94038665 0.0428195938,4.50735215 C0.058076323,11.9989247 0.0426756624,19.4906408 0.0415242111,26.9822851 C0.0411643826,29.3053146 1.81835744,31.2530688 4.1434254,31.3434767 C6.10693766,31.4198099 8.07584735,31.3553252 10.0424541,31.3532427 C10.1860257,31.3578385 10.3295973,31.3663838 10.4731689,31.3664557 C13.9392531,31.3671737 17.4053373,31.3671019 20.8714215,31.3670301 C23.4620429,31.3669583 26.0526643,31.3773707 28.6431418,31.3633679 C31.0792528,31.3500831 32.9923171,29.415829 32.99462,26.9912613 C32.9960593,25.5910526 32.9959154,24.1908439 32.9930368,22.790707 C32.9928209,22.6888096 33.0278682,22.5796596 32.963171,22.4776186 C32.8367992,22.4878873 32.7859914,22.593806 32.7151052,22.6644663 C31.3048653,24.0698453 29.68758,25.1822425 27.8674234,25.9818385 C23.440813,27.926505 18.9338169,28.0675384 14.369608,26.4988652 C13.9518471,26.3552467 13.544953,26.3398795 13.1341727,26.4450801 C12.5309562,26.5995418 11.9330651,26.7761925 11.337405,26.9581572 C9.57035913,27.498091 7.78172352,27.7456893 5.94386338,27.385135" id="Fill-1" fill="#FDFEFE" mask="url(#mask-2)"></path>
                    </g>
                    <g id="Group-6" fill="#0180C7">
                        <path d="M5.81745832,27.3829987 C5.80557222,27.3581286 5.79401223,27.3328742 5.78064516,27.3096564 C7.6315552,27.6778732 9.4330342,27.4249626 11.2126244,26.8734443 C11.8125375,26.6875755 12.41477,26.5071346 13.0222211,26.3493589 C13.4360068,26.2419746 13.8458061,26.2575981 14.2664774,26.404298 C18.8633473,28.0066277 23.4025235,27.8625684 27.8606676,25.8761784 C29.6938202,25.0594267 31.3226529,23.9231626 32.7430345,22.4876308 C32.8143543,22.4155278 32.8655249,22.3072632 32.992799,22.2967742 C33.0580306,22.4010045 33.0226605,22.5124964 33.022878,22.61658 C33.0257772,24.0467573 33.0259221,25.477008 33.024545,26.9072586 C33.0221532,29.3839197 31.0954295,31.3596005 28.6419971,31.3731703 C26.0330235,31.3874735 23.423905,31.3768378 20.8147865,31.3769111 C17.3239543,31.3769845 13.8330497,31.3770578 10.3422176,31.3763977 C10.1976209,31.3763243 10.0530242,31.3675223 9.90842751,31.3628279 C9.87088311,31.1055163 9.61561016,31.0590125 9.46854917,30.9091585 C9.09759888,30.5312596 8.71751617,30.1623827 8.32924327,29.8009875 C7.51007949,29.038368 6.72121217,28.2418609 5.8889296,27.4924445 C5.87746387,27.4821192 5.86743059,27.4701629 5.85834762,27.457123 C5.87748515,27.4974222 5.89750115,27.5366799 5.92780488,27.5641483 C6.73730669,28.2978235 7.50458159,29.0776002 8.30132368,29.8242011 C8.678969,30.1780053 9.04864831,30.539134 9.40944516,30.9090953 C9.55248088,31.0558016 9.80076664,31.1013287 9.8372834,31.3532356 C7.91091865,31.355318 5.98215704,31.4198027 4.05875311,31.3434695 C1.78117891,31.2530617 0.0403587726,29.3053074 0.040711251,26.9822779 C0.0417686861,19.4906336 0.0569252557,11.9989893 0.0419096774,4.50734496 C0.036833989,1.94037947 2.00112541,0.151826311 4.26523493,0.0925118654 C6.63692085,0.0304686676 9.0112856,0.0772164937 11.3845224,0.0776473492 C11.4261854,0.0776473492 11.4803965,0.0571099018 11.5076784,0.126621262 C11.4928038,0.254513548 11.3676035,0.267295596 11.2852645,0.316556746 C9.88916821,1.15069307 8.61277356,2.15042154 7.54279024,3.38187849 C5.77045854,5.42140499 4.54905051,7.76590541 4.13397199,10.4821624 C3.39933659,15.2897921 4.87156821,19.3633158 8.21038426,22.7686544 C8.80501526,23.3750117 8.88143257,23.8536204 8.40396538,24.674472 C7.83266845,25.656679 6.96613564,26.3273775 6.04567364,26.9360328 C5.94726168,27.0011638 5.8444085,27.0611963 5.75417404,27.1367396 C5.60528068,27.261205 5.69547524,27.3292047 5.81745832,27.3829987 Z" id="Combined-Shape"></path>
                    </g>
                    <path d="M11.5664112,15.6009228 C12.6719943,15.6009228 13.7037843,15.594366 14.7355011,15.6034852 C15.3151797,15.6086101 15.6284721,15.8630439 15.6818078,16.3340028 C15.7493176,16.9301437 15.4121338,17.3255863 14.7860604,17.3328968 C13.6052228,17.3466887 12.424166,17.3382477 11.2431823,17.3382477 C10.9022723,17.3382477 10.5605585,17.3505323 10.2207444,17.330259 C9.7969083,17.3050869 9.38249728,17.2186427 9.17982165,16.7675804 C8.97678071,16.315689 9.11786458,15.9102227 9.39835187,15.5422885 C10.5268767,14.0618091 11.6568627,12.5824601 12.786045,11.1025083 C12.8531165,11.0146322 12.917923,10.9248719 12.9830949,10.8369204 C12.9141238,10.7083469 12.804676,10.7659261 12.719485,10.7653985 C11.9281441,10.7602737 11.136657,10.7661522 10.3453161,10.7595954 C10.1644862,10.7580881 9.97824965,10.7430904 9.80421456,10.6960623 C9.43707504,10.596806 9.21423413,10.2935353 9.21131163,9.93200711 C9.20838913,9.56980064 9.42458134,9.26298779 9.79077104,9.15649637 C9.96378326,9.10615224 10.1508235,9.08866745 10.3315803,9.08791379 C11.6342864,9.08248748 12.9370654,9.08278894 14.2398445,9.0872355 C14.4699917,9.08806452 14.7018923,9.09409376 14.9253177,9.1736797 C15.4192939,9.34965809 15.6367282,9.81926036 15.4358791,10.3165218 C15.2610403,10.7495718 14.9823066,11.1176568 14.7040842,11.4829532 C13.74901,12.7367333 12.7902827,13.9876494 11.8333089,15.2399975 C11.7590042,15.337219 11.687549,15.4368522 11.5664112,15.6009228" id="Fill-9" fill="#0180C7"></path>
                    <path d="M16.5773087,14.172521 C16.5838286,14.4321957 16.6608447,14.7814238 16.862961,15.0845161 C17.3025776,15.7437833 18.2045624,15.7417446 18.6437715,15.083157 C19.0244375,14.5123105 19.0226038,13.5651283 18.6415303,12.994886 C18.4400252,12.6935304 18.171148,12.5357171 17.83551,12.5138195 C17.091021,12.4651163 16.5697022,13.1054308 16.5773087,14.172521 M18.9780512,11.4119198 C19.1434253,11.1804854 19.3075769,10.962416 19.5871847,10.8990641 C20.1207963,10.7781746 20.6266983,11.1636469 20.6338294,11.7667356 C20.6516233,13.2759297 20.6451034,14.7856523 20.6369536,16.2949975 C20.6347803,16.7072754 20.4063807,17.0232797 20.0722367,17.1496059 C19.7220648,17.2819728 19.3571552,17.1855481 19.1232544,16.8572359 C19.0088169,16.6965532 18.959782,16.669068 18.8001128,16.8129877 C18.181607,17.3703936 17.4841155,17.4680264 16.7301184,17.1960438 C15.5204088,16.759754 15.0224528,15.7118431 14.8911723,14.4284203 C14.750112,13.0496298 15.1629019,11.8665582 16.2728438,11.1411453 C17.1942525,10.5389627 18.1303308,10.5894781 18.9780512,11.4119198" id="Fill-11" fill="#0180C7"></path>
                    <path d="M26.4861231,14.010776 C26.4843548,14.3987198 26.5663094,14.7604369 26.7760586,15.074779 C27.2059629,15.7191538 28.0999816,15.7243082 28.5387955,15.0888778 C28.9342857,14.5159823 28.93585,13.5424086 28.5453927,12.9633733 C28.3418326,12.6614624 28.0714166,12.5058452 27.736185,12.4859856 C27.0016547,12.4425523 26.4892517,13.0685077 26.4861231,14.010776 M24.7758915,14.1939086 C24.7239303,12.2474434 25.8697297,10.7932227 27.499231,10.737434 C29.2308864,10.6781585 30.5012159,11.9757766 30.5529731,13.8675901 C30.6053424,15.7832047 29.5509512,17.1421449 27.9248505,17.3237615 C26.158373,17.5211444 24.750455,16.0866316 24.7758915,14.1939086" id="Fill-13" fill="#0180C7"></path>
                    <path d="M23.9466034,12.3951827 C23.9466034,13.465727 23.9517117,14.5362713 23.9446387,15.6068156 C23.9405128,16.2191376 23.4285105,16.6331339 22.8779345,16.4864973 C22.547209,16.3983909 22.2999836,16.0282059 22.2994596,15.5969338 C22.296971,13.7666016 22.2983463,11.9363385 22.2983463,10.1060754 C22.2983463,9.78370973 22.2941549,9.46134405 22.2994596,9.13911658 C22.3081698,8.60799062 22.6286788,8.26316645 23.1103592,8.25812193 C23.6078882,8.2529392 23.9416262,8.59900722 23.9448352,9.14906742 C23.9511223,10.2310828 23.9466689,11.3131673 23.9466034,12.3951827" id="Fill-15" fill="#0180C7"></path>
                    <path d="M17.8420292,12.3898903 C18.1957036,12.413476 18.4790295,12.5834551 18.6913629,12.908042 C19.0929143,13.5222441 19.0948465,14.5424441 18.6937246,15.1572969 C18.2309136,15.8666547 17.2804585,15.8688506 16.8172181,15.1587608 C16.6042406,14.8323033 16.5230858,14.4561533 16.5162156,14.1764604 C16.5082003,13.0271087 17.0575334,12.3374327 17.8420292,12.3898903 Z" id="Fill-17" fill="#FDFEFE"></path>
                    <path d="M27.7432642,12.3893782 C28.0965614,12.4106915 28.3815503,12.5776998 28.5960803,12.9017105 C29.0075795,13.5231311 29.005931,14.5679701 28.5891276,15.1828014 C28.1266659,15.8647451 27.1844682,15.8592134 26.7313961,15.1676706 C26.5103434,14.8303187 26.4239723,14.4421241 26.4258359,14.0257829 C26.4291331,13.0145408 26.9691496,12.3427656 27.7432642,12.3893782 Z" id="Fill-19" fill="#FDFEFE"></path>
                </g>
            </g>
        </g>
    </g>
</svg>